<svg id="Layer_1" data-name="Layer 1" xmlns="http://www.w3.org/2000/svg" viewBox="0 0 1500 1061.88"><defs><style>.cls-1{fill:#ff495c;}.cls-2{fill:#284fff;}</style></defs><title>losant-logo-stack-01</title><polygon class="cls-1" points="1093.83 102.79 1015.44 7.12 415.45 615.25 485.36 708.48 1093.83 102.79"/><polygon class="cls-2" points="1015 7.21 1015 181.15 1196.02 362.72 1014.19 544.28 485.47 15.69 138.32 362.72 485.25 708.49 485.3 544.22 303.75 362.69 485.33 181.14 1013.91 709.74 1361.52 358.47 1015 7.21"/><path d="M14.93,899.84H56.77V1021h66.44v35.18H14.93V899.84Z"/><path d="M546.24,1029.51l30.35-22.76c7.58,9.43,17,17,32.65,17,12.41,0,19.77-3.68,19.77-12.41,0-6.67-5.06-9.89-15.4-13.34l-18.39-6.21c-22.76-7.59-38.85-21.38-38.85-47.13,0-30.81,25.52-46.67,53.34-46.67,27.59,0,42.76,9.89,52,20.69l-23.91,25.06c-6.44-6.67-13.33-11.27-25.75-11.27-10.12,0-15.17,4.6-15.17,10.81,0,6,3.45,9,11,11.49l20.69,6.9C659.82,972,670.4,987,670.4,1009.05c0,28.74-17.93,49.43-59.32,49.43C575.9,1058.49,555.9,1042.39,546.24,1029.51Z"/><path d="M841.69,1056.18H800.77l76.1-159.1c0.69-1.61,2.07-1.61,2.76,0l75.87,159.1H912.27l-6-13.34H847.44Zm34.72-80.93-15.63,36.32H892.5Z"/><path d="M1125.73,978.24v77.94h-39.31V897.77c0-1.38.69-2.53,3.22-.46l98.17,80.93v-78.4h39.31v158.64c0,1.84-.69,2.53-3.22.46Z"/><path d="M1401.85,935h-41.38V899.84h124.61V935h-41.38v121.16h-41.84V935Z"/><path d="M333.88,898.27a80.43,80.43,0,1,0,80.43,80.43A80.43,80.43,0,0,0,333.88,898.27Zm0,123a42.61,42.61,0,1,1,42.61-42.61A42.61,42.61,0,0,1,333.88,1021.31Z"/></svg>